# xmcd CD database file
#
# Track frame offsets:
#	182
#	13035
#	26052
#	38980
#	51657
#	64757
#	77492
#	89900
#	102205
#	114640
#	127725
#	140335
#	153395
#	166510
#	181272
#	195117
#	208145
#	222095
#	235057
#	247985
#	260612
#	273797
#
# Disc length: 3845 seconds
#
# Revision: 0
# Processed by: cddbd v1.4PL0 Copyright (c) Steve Scherf et al.
# Submitted via: CDex 1.40Release
#
DISCID=290f0316
DTITLE=JT "Funny Paper" Smith - Complete Recordings (1930-1931)
DYEAR=1991
DGENRE=Blues
TTITLE0=Howling Wolf Blues #1
TTITLE1=Howling Wolf Blues #2
TTITLE2=Heart Bleeding Blues
TTITLE3=Good Coffee Blues
TTITLE4=Hard Luck Man Blues
TTITLE5=Mama's Quittin' And Leavin' (Part 1)
TTITLE6=Mama's Quittin' And Leavin' (Part 2)
TTITLE7=Howling Wolf Blues #3
TTITLE8=Howling Wolf Blues #4
TTITLE9=Tell It To The Judge #1
TTITLE10=Tell It To The Judge #2 (Take B)
TTITLE11=Honey Blues
TTITLE12=Corn Whiskey Blues
TTITLE13=Whiskeyhead Blues
TTITLE14=Fourty-Five Blues
TTITLE15=County Jail Blues
TTITLE16=Hungry Wolf
TTITLE17=Hoppin' Toad Frog
TTITLE18=Fool's Blues
TTITLE19=Seven Sisters Blues (Part 1)
TTITLE20=Seven Sisters Blues (Part 2)
TTITLE21=Before Long
EXTD=YEAR: 1991 ID3G: 0
EXTT0=
EXTT1=
EXTT2=
EXTT3=
EXTT4=
EXTT5=
EXTT6=
EXTT7=
EXTT8=
EXTT9=
EXTT10=
EXTT11=
EXTT12=
EXTT13=
EXTT14=
EXTT15=
EXTT16=
EXTT17=
EXTT18=
EXTT19=
EXTT20=
EXTT21=
PLAYORDER=
